<svg xmlns="http://www.w3.org/2000/svg" version="1.1" xmlns:xlink="http://www.w3.org/1999/xlink" xmlns:svgjs="http://svgjs.dev/svgjs" width="2000" height="272" viewBox="0 0 2000 272"><g transform="matrix(1,0,0,1,-1.2121212121212466,0.6722385929472523)"><svg viewBox="0 0 396 54" data-background-color="#ffffff" preserveAspectRatio="xMidYMid meet" height="272" width="2000" xmlns="http://www.w3.org/2000/svg" xmlns:xlink="http://www.w3.org/1999/xlink"><g id="tight-bounds" transform="matrix(1,0,0,1,0.2400000000000091,-0.13345913242335428)"><svg viewBox="0 0 395.52 54.2669182648467" height="54.2669182648467" width="395.52"><g><svg viewBox="0 0 525.976802615884 72.16611083323622" height="54.2669182648467" width="395.52"><g><rect width="5.351281369530013" height="59.636019427873286" x="111.09693127376232" y="6.265045702681466" fill="#ff0000" opacity="1" stroke-width="0" stroke="transparent" fill-opacity="1" class="rect-yte-0" data-fill-palette-color="primary" rx="1%" id="yte-0" data-palette-color="#ff0000"></rect></g><g transform="matrix(1,0,0,1,130.456802615884,6.413394009715972)"><svg viewBox="0 0 395.52000000000004 59.33932281380427" height="59.33932281380427" width="395.52000000000004"><g id="textblocktransform"><svg viewBox="0 0 395.52000000000004 59.33932281380427" height="59.33932281380427" width="395.52000000000004" id="textblock"><g><svg viewBox="0 0 395.52000000000004 59.33932281380427" height="59.33932281380427" width="395.52000000000004"><g transform="matrix(1,0,0,1,0,0)"><svg width="395.52000000000004" viewBox="-0.05 -40.8 346.56051757812503 52" height="59.33932281380427" data-palette-color="#ff0000"><g transform="matrix(1,0,0,1,0,0)"><g><svg width="17.46701171875" viewBox="1.78 -36.36 74.21 36.36" height="8.558000000000002" data-palette-color="#ff0000" id="scriptelement" x="329.043505859375" y="-40.8"><path d="M12.91-30.02L1.78-30.02 1.78-36.36 31.64-36.36 31.64-30.02 20.51-30.02 20.51 0 12.91 0 12.91-30.02ZM36.57 0L36.57-36.36 46.06-36.36 56.07-11.93 56.5-11.93 66.51-36.36 75.99-36.36 75.99 0 68.53 0 68.53-23.67 68.23-23.67 58.82-0.18 53.74-0.18 44.33-23.76 44.03-23.76 44.03 0 36.57 0Z" opacity="1" transform="matrix(1,0,0,1,0,0)" fill="#ff0000" class="undefined-123" data-fill-palette-color="primary" id="tk-123"></path></svg></g></g><path d="M14.3-34.75Q20-34.75 22.98-32.27 25.95-29.8 25.95-25.05L25.95-25.05Q25.95-21.05 24.3-17.95 22.65-14.85 19.5-13.1 16.35-11.35 12-11.35L12-11.35 10.25-11.35 8.65 0-0.05 0 4.85-34.75 14.3-34.75ZM12-17.65Q14.75-17.65 15.93-19.68 17.1-21.7 17.1-24.95L17.1-24.95Q17.1-26.9 16.32-27.7 15.55-28.5 13.75-28.5L13.75-28.5 12.65-28.5 11.15-17.65 12-17.65ZM41.85-27.45Q42.95-27.45 44-27L44-27 41.45-18.85Q40.25-19.15 39.6-19.15L39.6-19.15Q37.9-19.15 36.75-17.25 35.6-15.35 34.7-11.95L34.7-11.95 33.05 0 24.7 0 28.4-26.65 35.55-26.65 35.5-22.25Q38-27.45 41.85-27.45L41.85-27.45ZM45.2-26.65L53.55-26.65 49.85 0 41.5 0 45.2-26.65ZM50.15-31.35Q48.15-31.35 47.02-32.45 45.9-33.55 45.9-35.4L45.9-35.4Q45.9-37.75 47.42-39.28 48.95-40.8 51.2-40.8L51.2-40.8Q53.2-40.8 54.32-39.7 55.45-38.6 55.45-36.75L55.45-36.75Q55.45-34.4 53.92-32.88 52.4-31.35 50.15-31.35L50.15-31.35ZM71.29-27.55Q73.64-27.55 74.99-25.93 76.34-24.3 76.34-21.5L76.34-21.5Q76.34-20.6 76.19-19.6L76.19-19.6 73.39 0 65.04 0 67.54-18.1Q67.59-18.4 67.59-18.85L67.59-18.85Q67.59-19.95 66.94-19.95L66.94-19.95Q66.34-19.95 65.64-18.82 64.94-17.7 63.69-15L63.69-15 61.59 0 53.24 0 56.94-26.65 64.19-26.65 64.19-22.6Q67.34-27.55 71.29-27.55L71.29-27.55ZM91.04-27.55Q93.54-27.55 95.42-26.7 97.29-25.85 98.79-24.15L98.79-24.15 94.79-19.65Q93.89-20.4 93.09-20.75 92.29-21.1 91.39-21.1L91.39-21.1Q88.74-21.1 87.52-17.7 86.29-14.3 86.29-9.85L86.29-9.85Q86.29-7.45 86.94-6.55 87.59-5.65 88.89-5.65L88.89-5.65Q89.74-5.65 90.62-6 91.49-6.35 92.64-7.1L92.64-7.1 95.59-2.2Q91.94 0.9 87.39 0.9L87.39 0.9Q82.79 0.9 80.19-1.98 77.59-4.85 77.59-10L77.59-10Q77.59-14.9 79.19-18.9 80.79-22.9 83.84-25.23 86.89-27.55 91.04-27.55L91.04-27.55ZM111.49-27.55Q115.49-27.55 117.84-25.5 120.19-23.45 120.09-20.2L120.09-20.2Q119.79-11.25 105.74-9.6L105.74-9.6 105.74-8.9Q105.74-5.3 108.79-5.3L108.79-5.3Q110.09-5.3 111.34-5.85 112.59-6.4 114.24-7.6L114.24-7.6 117.04-2.75Q112.69 0.9 107.29 0.9L107.29 0.9Q102.69 0.9 100.11-1.65 97.54-4.2 97.54-9.25L97.54-9.25Q97.54-14.35 99.09-18.5 100.64-22.65 103.79-25.1 106.94-27.55 111.49-27.55L111.49-27.55ZM106.24-14.65Q109.24-14.95 110.64-16.55 112.04-18.15 112.04-20.2L112.04-20.2Q112.04-21.95 110.54-21.95L110.54-21.95Q108.94-21.95 107.86-19.88 106.79-17.8 106.24-14.65L106.24-14.65ZM142.53-34.75Q148.23-34.75 151.21-32.27 154.18-29.8 154.18-25.05L154.18-25.05Q154.18-21.05 152.53-17.95 150.88-14.85 147.73-13.1 144.58-11.35 140.23-11.35L140.23-11.35 138.48-11.35 136.88 0 128.18 0 133.08-34.75 142.53-34.75ZM140.23-17.65Q142.98-17.65 144.16-19.68 145.33-21.7 145.33-24.95L145.33-24.95Q145.33-26.9 144.56-27.7 143.78-28.5 141.98-28.5L141.98-28.5 140.88-28.5 139.38-17.65 140.23-17.65ZM167.98-27.55Q172.78-27.55 177.23-24.95L177.23-24.95 174.83-7.95Q174.68-7.15 174.68-6.5L174.68-6.5Q174.68-5.85 174.91-5.43 175.13-5 175.68-4.75L175.68-4.75 173.08 0.75Q170.98 0.55 169.38-0.38 167.78-1.3 167.18-3L167.18-3Q165.78-1.05 164.23-0.08 162.68 0.9 160.58 0.9L160.58 0.9Q157.28 0.9 155.51-1.63 153.73-4.15 153.73-8.55L153.73-8.55Q153.73-13.6 155.16-17.9 156.58-22.2 159.78-24.88 162.98-27.55 167.98-27.55L167.98-27.55ZM167.18-21.6Q164.73-21.6 163.43-17.57 162.13-13.55 162.13-8.35L162.13-8.35Q162.13-6.65 162.51-5.98 162.88-5.3 163.63-5.3L163.63-5.3Q164.33-5.3 165.03-6.03 165.73-6.75 166.58-8.05L166.58-8.05 168.43-21.35Q167.78-21.6 167.18-21.6L167.18-21.6ZM189.03-27.55Q191.63-27.55 193.85-26.65 196.08-25.75 197.63-24.15L197.63-24.15 194.08-19.7Q191.63-21.55 189.53-21.55L189.53-21.55Q188.38-21.55 187.68-20.98 186.98-20.4 186.98-19.45L186.98-19.45Q186.98-18.6 187.8-17.9 188.63-17.2 190.98-16.05L190.98-16.05Q193.58-14.85 194.88-13.2 196.18-11.55 196.18-8.85L196.18-8.85Q196.18-5.9 194.68-3.7 193.18-1.5 190.65-0.3 188.13 0.9 185.13 0.9L185.13 0.9Q179.23 0.9 175.48-3.2L175.48-3.2 179.83-7.5Q181.08-6.35 182.3-5.7 183.53-5.05 184.88-5.05L184.88-5.05Q186.28-5.05 187-5.75 187.73-6.45 187.73-7.6L187.73-7.6Q187.73-8.7 186.93-9.47 186.13-10.25 184.03-11.2L184.03-11.2Q181.28-12.45 180.05-14.03 178.83-15.6 178.83-18.3L178.83-18.3Q178.83-20.9 180.13-23.03 181.43-25.15 183.75-26.35 186.08-27.55 189.03-27.55L189.03-27.55ZM209.38-20.75L207.63-8.15Q207.58-7.9 207.58-7.45L207.58-7.45Q207.58-5.8 208.98-5.8L208.98-5.8Q209.88-5.8 210.88-6.35L210.88-6.35 212.78-1.05Q211.38-0.1 209.63 0.4 207.88 0.9 206.18 0.9L206.18 0.9Q202.73 0.9 200.9-1 199.08-2.9 199.08-6.3L199.08-6.3Q199.08-7.25 199.23-8.2L199.23-8.2 200.98-20.75 198.33-20.75 199.18-26.65 202.13-26.65 203.63-32.5 211.08-33.35 210.18-26.65 214.93-26.65 213.08-20.75 209.38-20.75ZM228.72-27.55Q233.52-27.55 237.97-24.95L237.97-24.95 235.57-7.95Q235.42-7.15 235.42-6.5L235.42-6.5Q235.42-5.85 235.65-5.43 235.87-5 236.42-4.75L236.42-4.75 233.82 0.75Q231.72 0.55 230.12-0.38 228.52-1.3 227.92-3L227.92-3Q226.52-1.05 224.97-0.08 223.42 0.9 221.32 0.9L221.32 0.9Q218.02 0.9 216.25-1.63 214.47-4.15 214.47-8.55L214.47-8.55Q214.47-13.6 215.9-17.9 217.32-22.2 220.52-24.88 223.72-27.55 228.72-27.55L228.72-27.55ZM227.92-21.6Q225.47-21.6 224.17-17.57 222.87-13.55 222.87-8.35L222.87-8.35Q222.87-6.65 223.25-5.98 223.62-5.3 224.37-5.3L224.37-5.3Q225.07-5.3 225.77-6.03 226.47-6.75 227.32-8.05L227.32-8.05 229.17-21.35Q228.52-21.6 227.92-21.6L227.92-21.6ZM251.42-38L249.47-23.6Q251.07-25.6 252.87-26.55 254.67-27.5 256.87-27.5L256.87-27.5Q259.67-27.5 261.37-25.83 263.07-24.15 263.07-21.45L263.07-21.45Q263.07-18.45 261.65-16.28 260.22-14.1 257.12-12.1L257.12-12.1 260.27 0 251.62 0 248.82-12.8Q252.12-14.2 253.4-15.9 254.67-17.6 254.67-19.75L254.67-19.75Q254.67-20.65 254.27-21.15 253.87-21.65 253.22-21.65L253.22-21.65Q251.12-21.65 248.42-16.95L248.42-16.95 246.12 0 237.72 0 242.92-37.15 251.42-38ZM266.02-26.65L274.37-26.65 270.67 0 262.32 0 266.02-26.65ZM270.97-31.35Q268.97-31.35 267.84-32.45 266.72-33.55 266.72-35.4L266.72-35.4Q266.72-37.75 268.24-39.28 269.77-40.8 272.02-40.8L272.02-40.8Q274.02-40.8 275.14-39.7 276.27-38.6 276.27-36.75L276.27-36.75Q276.27-34.4 274.74-32.88 273.22-31.35 270.97-31.35L270.97-31.35ZM298.57-26.65L288.42 0.05Q286.27 5.75 282.54 8.33 278.82 10.9 273.07 11.2L273.07 11.2 272.97 5.45Q276.22 4.95 277.92 3.83 279.62 2.7 280.87 0L280.87 0 277.87 0 275.62-26.65 284.22-26.65 283.92-5.4 289.77-26.65 298.57-26.65ZM311.06-27.55Q315.86-27.55 320.31-24.95L320.31-24.95 317.91-7.95Q317.76-7.15 317.76-6.5L317.76-6.5Q317.76-5.85 317.99-5.43 318.21-5 318.76-4.75L318.76-4.75 316.16 0.75Q314.06 0.55 312.46-0.38 310.86-1.3 310.26-3L310.26-3Q308.86-1.05 307.31-0.08 305.76 0.9 303.66 0.9L303.66 0.9Q300.36 0.9 298.59-1.63 296.81-4.15 296.81-8.55L296.81-8.55Q296.81-13.6 298.24-17.9 299.66-22.2 302.86-24.88 306.06-27.55 311.06-27.55L311.06-27.55ZM310.26-21.6Q307.81-21.6 306.51-17.57 305.21-13.55 305.21-8.35L305.21-8.35Q305.21-6.65 305.59-5.98 305.96-5.3 306.71-5.3L306.71-5.3Q307.41-5.3 308.11-6.03 308.81-6.75 309.66-8.05L309.66-8.05 311.51-21.35Q310.86-21.6 310.26-21.6L310.26-21.6Z" opacity="1" transform="matrix(1,0,0,1,0,0)" fill="#ff0000" class="wordmark-text-0" data-fill-palette-color="primary" id="text-0"></path></svg></g></svg></g></svg></g></svg></g><g><svg viewBox="0 0 97.08834130117066 72.16611083323622" height="72.16611083323622" width="97.08834130117066"><g><svg xmlns="http://www.w3.org/2000/svg" xmlns:xlink="http://www.w3.org/1999/xlink" version="1.1" x="0" y="0" viewBox="5.2 16.7 89.6 66.6" enable-background="new 0 0 100 100" xml:space="preserve" height="72.16611083323622" width="97.08834130117066" class="icon-icon-0" data-fill-palette-color="accent" id="icon-0"></svg></g></svg></g></svg></g><defs></defs><mask id="4249a966-8563-4721-a4e4-0dc66dd61d9f"><g id="SvgjsG1265"><svg viewBox="0 0 395.52 54.2669182648467" height="54.2669182648467" width="395.52"><g><svg viewBox="0 0 525.976802615884 72.16611083323622" height="54.2669182648467" width="395.52"><g><rect width="5.351281369530013" height="59.636019427873286" x="111.09693127376232" y="6.265045702681466" fill="black" opacity="1" stroke-width="0" stroke="transparent" fill-opacity="1" class="rect-yte-0" rx="1%" id="SvgjsRect1264" data-palette-color="#ff0000"></rect></g><g transform="matrix(1,0,0,1,130.456802615884,6.413394009715972)"><svg viewBox="0 0 395.52000000000004 59.33932281380427" height="59.33932281380427" width="395.52000000000004"><g id="SvgjsG1263"><svg viewBox="0 0 395.52000000000004 59.33932281380427" height="59.33932281380427" width="395.52000000000004" id="SvgjsSvg1262"><g><svg viewBox="0 0 395.52000000000004 59.33932281380427" height="59.33932281380427" width="395.52000000000004"><g transform="matrix(1,0,0,1,0,0)"><svg width="395.52000000000004" viewBox="-0.05 -40.8 346.56051757812503 52" height="59.33932281380427" data-palette-color="#ff0000"><g transform="matrix(1,0,0,1,0,0)"><g><svg width="17.46701171875" viewBox="1.78 -36.36 74.21 36.36" height="8.558000000000002" data-palette-color="#ff0000" id="SvgjsSvg1261" x="329.043505859375" y="-40.8"><path d="M12.91-30.02L1.78-30.02 1.78-36.36 31.64-36.36 31.64-30.02 20.51-30.02 20.51 0 12.91 0 12.91-30.02ZM36.57 0L36.57-36.36 46.06-36.36 56.07-11.93 56.5-11.93 66.51-36.36 75.99-36.36 75.99 0 68.53 0 68.53-23.67 68.23-23.67 58.82-0.18 53.74-0.18 44.33-23.76 44.03-23.76 44.03 0 36.57 0Z" opacity="1" transform="matrix(1,0,0,1,0,0)" fill="black" class="undefined-123" id="SvgjsPath1260"></path></svg></g></g><path d="M14.3-34.75Q20-34.75 22.98-32.27 25.95-29.8 25.95-25.05L25.95-25.05Q25.95-21.05 24.3-17.95 22.65-14.85 19.5-13.1 16.35-11.35 12-11.35L12-11.35 10.25-11.35 8.65 0-0.05 0 4.85-34.75 14.3-34.75ZM12-17.65Q14.75-17.65 15.93-19.68 17.1-21.7 17.1-24.95L17.1-24.95Q17.1-26.9 16.32-27.7 15.55-28.5 13.75-28.5L13.75-28.5 12.65-28.5 11.15-17.65 12-17.65ZM41.85-27.45Q42.95-27.45 44-27L44-27 41.45-18.85Q40.25-19.15 39.6-19.15L39.6-19.15Q37.9-19.15 36.75-17.25 35.6-15.35 34.7-11.95L34.7-11.95 33.05 0 24.7 0 28.4-26.65 35.55-26.65 35.5-22.25Q38-27.45 41.85-27.45L41.85-27.45ZM45.2-26.65L53.55-26.65 49.85 0 41.5 0 45.2-26.65ZM50.15-31.35Q48.15-31.35 47.02-32.45 45.9-33.55 45.9-35.4L45.9-35.4Q45.9-37.75 47.42-39.28 48.95-40.8 51.2-40.8L51.2-40.8Q53.2-40.8 54.32-39.7 55.45-38.6 55.45-36.75L55.45-36.75Q55.45-34.4 53.92-32.88 52.4-31.35 50.15-31.35L50.15-31.35ZM71.29-27.55Q73.64-27.55 74.99-25.93 76.34-24.3 76.34-21.5L76.34-21.5Q76.34-20.6 76.19-19.6L76.19-19.6 73.39 0 65.04 0 67.54-18.1Q67.59-18.4 67.59-18.85L67.59-18.85Q67.59-19.95 66.94-19.95L66.94-19.95Q66.34-19.95 65.64-18.82 64.94-17.7 63.69-15L63.69-15 61.59 0 53.24 0 56.94-26.65 64.19-26.65 64.19-22.6Q67.34-27.55 71.29-27.55L71.29-27.55ZM91.04-27.55Q93.54-27.55 95.42-26.7 97.29-25.85 98.79-24.15L98.79-24.15 94.79-19.65Q93.89-20.4 93.09-20.75 92.29-21.1 91.39-21.1L91.39-21.1Q88.74-21.1 87.52-17.7 86.29-14.3 86.29-9.85L86.29-9.85Q86.29-7.45 86.94-6.55 87.59-5.65 88.89-5.65L88.89-5.65Q89.74-5.65 90.62-6 91.49-6.35 92.64-7.1L92.64-7.1 95.59-2.2Q91.94 0.9 87.39 0.9L87.39 0.9Q82.79 0.9 80.19-1.98 77.59-4.85 77.59-10L77.59-10Q77.59-14.9 79.19-18.9 80.79-22.9 83.84-25.23 86.89-27.55 91.04-27.55L91.04-27.55ZM111.49-27.55Q115.49-27.55 117.84-25.5 120.19-23.45 120.09-20.2L120.09-20.2Q119.79-11.25 105.74-9.6L105.74-9.6 105.74-8.9Q105.74-5.3 108.79-5.3L108.79-5.3Q110.09-5.3 111.34-5.85 112.59-6.4 114.24-7.6L114.24-7.6 117.04-2.75Q112.69 0.9 107.29 0.9L107.29 0.9Q102.69 0.9 100.11-1.65 97.54-4.2 97.54-9.25L97.54-9.25Q97.54-14.35 99.09-18.5 100.64-22.65 103.79-25.1 106.94-27.55 111.49-27.55L111.49-27.55ZM106.24-14.65Q109.24-14.95 110.64-16.55 112.04-18.15 112.04-20.2L112.04-20.2Q112.04-21.95 110.54-21.95L110.54-21.95Q108.94-21.95 107.86-19.88 106.79-17.8 106.24-14.65L106.24-14.65ZM142.53-34.75Q148.23-34.75 151.21-32.27 154.18-29.8 154.18-25.05L154.18-25.05Q154.18-21.05 152.53-17.95 150.88-14.85 147.73-13.1 144.58-11.35 140.23-11.35L140.23-11.35 138.48-11.35 136.88 0 128.18 0 133.08-34.75 142.53-34.75ZM140.23-17.65Q142.98-17.65 144.16-19.68 145.33-21.7 145.33-24.95L145.33-24.95Q145.33-26.9 144.56-27.7 143.78-28.5 141.98-28.5L141.98-28.5 140.88-28.5 139.38-17.65 140.23-17.65ZM167.98-27.55Q172.78-27.55 177.23-24.95L177.23-24.95 174.83-7.95Q174.68-7.15 174.68-6.5L174.68-6.5Q174.68-5.85 174.91-5.43 175.13-5 175.68-4.75L175.68-4.75 173.08 0.75Q170.98 0.55 169.38-0.38 167.78-1.3 167.18-3L167.18-3Q165.78-1.05 164.23-0.08 162.68 0.9 160.58 0.9L160.58 0.9Q157.28 0.9 155.51-1.63 153.73-4.15 153.73-8.55L153.73-8.55Q153.73-13.6 155.16-17.9 156.58-22.2 159.78-24.88 162.98-27.55 167.98-27.55L167.98-27.55ZM167.18-21.6Q164.73-21.6 163.43-17.57 162.13-13.55 162.13-8.35L162.13-8.35Q162.13-6.65 162.51-5.98 162.88-5.3 163.63-5.3L163.63-5.3Q164.33-5.3 165.03-6.03 165.73-6.75 166.58-8.05L166.58-8.05 168.43-21.35Q167.78-21.6 167.18-21.6L167.18-21.6ZM189.03-27.55Q191.63-27.55 193.85-26.65 196.08-25.75 197.63-24.15L197.63-24.15 194.08-19.7Q191.63-21.55 189.53-21.55L189.53-21.55Q188.38-21.55 187.68-20.98 186.98-20.4 186.98-19.45L186.98-19.45Q186.98-18.6 187.8-17.9 188.63-17.2 190.98-16.05L190.98-16.05Q193.58-14.85 194.88-13.2 196.18-11.55 196.18-8.85L196.18-8.85Q196.18-5.9 194.68-3.7 193.18-1.5 190.65-0.3 188.13 0.9 185.13 0.9L185.13 0.9Q179.23 0.9 175.48-3.2L175.48-3.2 179.83-7.5Q181.08-6.35 182.3-5.7 183.53-5.05 184.88-5.05L184.88-5.05Q186.28-5.05 187-5.75 187.73-6.45 187.73-7.6L187.73-7.6Q187.73-8.7 186.93-9.47 186.13-10.25 184.03-11.2L184.03-11.2Q181.28-12.45 180.05-14.03 178.83-15.6 178.83-18.3L178.83-18.3Q178.83-20.9 180.13-23.03 181.43-25.15 183.75-26.35 186.08-27.55 189.03-27.55L189.03-27.55ZM209.38-20.75L207.63-8.15Q207.58-7.9 207.58-7.45L207.58-7.45Q207.58-5.8 208.98-5.8L208.98-5.8Q209.88-5.8 210.88-6.35L210.88-6.35 212.78-1.05Q211.38-0.1 209.63 0.4 207.88 0.9 206.18 0.9L206.18 0.9Q202.73 0.9 200.9-1 199.08-2.9 199.08-6.3L199.08-6.3Q199.08-7.25 199.23-8.2L199.23-8.2 200.98-20.75 198.33-20.75 199.18-26.65 202.13-26.65 203.63-32.5 211.08-33.35 210.18-26.65 214.93-26.65 213.08-20.75 209.38-20.75ZM228.72-27.55Q233.52-27.55 237.97-24.95L237.97-24.95 235.57-7.95Q235.42-7.15 235.42-6.5L235.42-6.5Q235.42-5.85 235.65-5.43 235.87-5 236.42-4.75L236.42-4.75 233.82 0.75Q231.72 0.55 230.12-0.38 228.52-1.3 227.92-3L227.92-3Q226.52-1.05 224.97-0.08 223.42 0.9 221.32 0.9L221.32 0.9Q218.02 0.9 216.25-1.63 214.47-4.15 214.47-8.55L214.47-8.55Q214.47-13.6 215.9-17.9 217.32-22.2 220.52-24.88 223.72-27.55 228.72-27.55L228.72-27.55ZM227.92-21.6Q225.47-21.6 224.17-17.57 222.87-13.55 222.87-8.35L222.87-8.35Q222.87-6.65 223.25-5.98 223.62-5.3 224.37-5.3L224.37-5.3Q225.07-5.3 225.77-6.03 226.47-6.75 227.32-8.05L227.32-8.05 229.17-21.35Q228.52-21.6 227.92-21.6L227.92-21.6ZM251.42-38L249.47-23.6Q251.07-25.6 252.87-26.55 254.67-27.5 256.87-27.5L256.87-27.5Q259.67-27.5 261.37-25.83 263.07-24.15 263.07-21.45L263.07-21.45Q263.07-18.45 261.65-16.28 260.22-14.1 257.12-12.1L257.12-12.1 260.27 0 251.62 0 248.82-12.8Q252.12-14.2 253.4-15.9 254.67-17.6 254.67-19.75L254.67-19.75Q254.67-20.65 254.27-21.15 253.87-21.65 253.22-21.65L253.22-21.65Q251.12-21.65 248.42-16.95L248.42-16.95 246.12 0 237.72 0 242.92-37.15 251.42-38ZM266.02-26.65L274.37-26.65 270.67 0 262.32 0 266.02-26.65ZM270.97-31.35Q268.97-31.35 267.84-32.45 266.72-33.55 266.72-35.4L266.72-35.4Q266.72-37.75 268.24-39.28 269.77-40.8 272.02-40.8L272.02-40.8Q274.02-40.8 275.14-39.7 276.27-38.6 276.27-36.75L276.27-36.75Q276.27-34.4 274.74-32.88 273.22-31.35 270.97-31.35L270.97-31.35ZM298.57-26.65L288.42 0.05Q286.27 5.75 282.54 8.33 278.82 10.9 273.07 11.2L273.07 11.2 272.97 5.45Q276.22 4.95 277.92 3.83 279.62 2.7 280.87 0L280.87 0 277.87 0 275.62-26.65 284.22-26.65 283.92-5.4 289.77-26.65 298.57-26.65ZM311.06-27.55Q315.86-27.55 320.31-24.95L320.31-24.95 317.91-7.95Q317.76-7.15 317.76-6.5L317.76-6.5Q317.76-5.85 317.99-5.43 318.21-5 318.76-4.75L318.76-4.75 316.16 0.75Q314.06 0.55 312.46-0.38 310.86-1.3 310.26-3L310.26-3Q308.86-1.05 307.31-0.08 305.76 0.9 303.66 0.9L303.66 0.9Q300.36 0.9 298.59-1.63 296.81-4.15 296.81-8.55L296.81-8.55Q296.81-13.6 298.24-17.9 299.66-22.2 302.86-24.88 306.06-27.55 311.06-27.55L311.06-27.55ZM310.26-21.6Q307.81-21.6 306.51-17.57 305.21-13.55 305.21-8.35L305.21-8.35Q305.21-6.65 305.59-5.98 305.96-5.3 306.71-5.3L306.71-5.3Q307.41-5.3 308.11-6.03 308.81-6.75 309.66-8.05L309.66-8.05 311.51-21.35Q310.86-21.6 310.26-21.6L310.26-21.6Z" opacity="1" transform="matrix(1,0,0,1,0,0)" fill="black" class="wordmark-text-0" id="SvgjsPath1259"></path></svg></g></svg></g></svg></g></svg></g><g><svg viewBox="0 0 97.08834130117066 72.16611083323622" height="72.16611083323622" width="97.08834130117066"><g><svg xmlns="http://www.w3.org/2000/svg" xmlns:xlink="http://www.w3.org/1999/xlink" version="1.1" x="0" y="0" viewBox="5.2 16.7 89.6 66.6" enable-background="new 0 0 100 100" xml:space="preserve" height="72.16611083323622" width="97.08834130117066" class="icon-icon-0" data-fill-palette-color="accent" id="SvgjsSvg1258"><g fill="white"><polygon fill="black" points="46.5,31.8 38.5,23.8 12.2,50 38.5,76.2 46.5,68.2 28.2,50  "></polygon><rect x="39.6" y="39.6" transform="matrix(0.7071 -0.7071 0.7071 0.7071 -20.7107 50)" fill="black" width="20.8" height="20.8"></rect><polygon fill="black" points="61.5,23.8 53.5,31.8 71.8,50 53.5,68.2 61.5,76.2 87.8,50  "></polygon><path d="M61.5 16.7L50 28.2 38.5 16.7 5.2 50 38.5 83.3 50 71.8 61.5 83.3 94.8 50zM38.5 76.2L12.2 50 38.4 23.8 46.4 31.8 28.2 50 46.4 68.2zM35.3 50L50 35.3 64.7 50 50 64.7zM53.5 68.2L71.8 50 53.5 31.8 61.5 23.8 87.8 50 61.5 76.2z" fill="white"></path></g></svg></g></svg></g></svg></g><defs><mask></mask></defs></svg><rect width="395.52" height="54.2669182648467" fill="black" stroke="none" visibility="hidden"></rect></g></mask><linearGradient x1="0.054" x2="0.941" y1="0.5" y2="0.5" id="345b4e5d-c346-4a87-9ab3-ba30a39c74ee"><stop stop-color="#8c8c8c" offset="0"></stop><stop stop-color="#e3e4e5" offset="0.498"></stop><stop stop-color="#8c8c8c" offset="1"></stop></linearGradient><rect width="395.52" height="54.2669182648467" fill="url(#345b4e5d-c346-4a87-9ab3-ba30a39c74ee)" mask="url(#4249a966-8563-4721-a4e4-0dc66dd61d9f)" data-fill-palette-color="accent"></rect></svg><rect width="395.52" height="54.2669182648467" fill="none" stroke="none" visibility="hidden"></rect></g></svg></g></svg>